# xmcd
#
# Track frame offsets:
# 150
# 5120
# 11945
# 17347
# 22887
# 29735
# 34505
# 43275
# 48345
# 54410
# 69352
# 75090
# 79915
# 85165
# 88812
# 96042
# 104732
# 110117
# 123425
# 128102
# 139497
# 144462
# 148557
# 161295
# 168760
# 171600
# 176127
# 181130
# 183950
# 198362
# 201347
# 207177
# 212537
# 217940
# 229695
# 242317
# 243952
# 248387
# 254837
# 259070
# 261580
# 267567
# 272422
# 276885
# 283970
# 289970
# 293655
# 299455
# 314162
# 316482
#
# Disc length: 4272 seconds
#
# Revision: 1
# Processed by: cddbd v1.4PL0 Copyright (c) Steve Scherf et al.
# Submitted via: CedeCatalogueitor 2.5 http://usuarios.lycos.es/kakasboy
#
DISCID=f510ae32
DTITLE=Varis - Malalts De Tele
DYEAR=1900
DGENRE=
TTITLE0=Malats De Tele
TTITLE1=Un, Dos Tres
TTITLE2=Batman
TTITLE3=Fame
TTITLE4=La Cosa Nostra
TTITLE5=Magnum
TTITLE6=Mama Chico
TTITLE7=Charlies Angeles
TTITLE8=El Gran Juego De La Oca
TTITLE9=Alaba, Alab
TTITLE10=Dallas
TTITLE11=Moonlight
TTITLE12=Medico De Familia
TTITLE13=The Munsters
TTITLE14=Uno Para Todas
TTITLE15=Dia A Dia
TTITLE16=Sense Titol
TTITLE17=Sorpresa Sopresa
TTITLE18=Hawai
TTITLE19=Lou Grant
TTITLE20=Benny Hill Show
TTITLE21=L'hora De Mari Pau Huguet
TTITLE22=Que Apostamos?
TTITLE23=Love Boat
TTITLE24=Basquetmania
TTITLE25=Poble Nou
TTITLE26=The Untocuchables
TTITLE27=Tn
TTITLE28=Sapce 1999
TTITLE29=Bonanza
TTITLE30=Inpector Gadget
TTITLE31=Estudio Estadio
TTITLE32=Alf
TTITLE33=Reina Por Un Dia
TTITLE34=Twin Peaks
TTITLE35=Força Barça
TTITLE36=Little House On The Praire
TTITLE37=The Flinstones
TTITLE38=Bonic Vespre
TTITLE39=Presones Humanes
TTITLE40=Dynasty
TTITLE41=Miami Vice
TTITLE42=Afred Hichock Presents
TTITLE43=Melrose Place
TTITLE44=Hill Street Blues
TTITLE45=Labernit D'ombes
TTITLE46=Sitges
TTITLE47=A. Team
TTITLE48=Looney Tones
TTITLE49=Kojak
EXTD=
EXTT0=
EXTT1=
EXTT2=
EXTT3=
EXTT4=
EXTT5=
EXTT6=
EXTT7=
EXTT8=
EXTT9=
EXTT10=
EXTT11=
EXTT12=
EXTT13=
EXTT14=
EXTT15=
EXTT16=
EXTT17=
EXTT18=
EXTT19=
EXTT20=
EXTT21=
EXTT22=
EXTT23=
EXTT24=
EXTT25=
EXTT26=
EXTT27=
EXTT28=
EXTT29=
EXTT30=
EXTT31=
EXTT32=
EXTT33=
EXTT34=
EXTT35=
EXTT36=
EXTT37=
EXTT38=
EXTT39=
EXTT40=
EXTT41=
EXTT42=
EXTT43=
EXTT44=
EXTT45=
EXTT46=
EXTT47=
EXTT48=
EXTT49=
PLAYORDER=
